<svg width="36" height="37" viewBox="0 0 36 37" fill="none" xmlns="http://www.w3.org/2000/svg">
<path d="M13.5 14.4501L14.125 24.4501C14.1547 25.0279 14.575 25.4501 15.125 25.4501H20.875C21.4272 25.4501 21.8397 25.0279 21.875 24.4501L22.5 14.4501" stroke="black" stroke-linecap="round" stroke-linejoin="round"/>
<path d="M12.5 14.4501H23.5H12.5Z" fill="black"/>
<path d="M12.5 14.4501H23.5" stroke="black" stroke-miterlimit="10" stroke-linecap="round"/>
<path d="M20.25 16.4501L20 23.4501M16 14.4501V13.2001C15.9997 13.1015 16.0189 13.0039 16.0565 12.9128C16.0941 12.8216 16.1493 12.7388 16.219 12.6691C16.2887 12.5994 16.3715 12.5442 16.4626 12.5066C16.5538 12.469 16.6514 12.4498 16.75 12.4501H19.25C19.3486 12.4498 19.4462 12.469 19.5374 12.5066C19.6285 12.5442 19.7113 12.5994 19.781 12.6691C19.8507 12.7388 19.9059 12.8216 19.9435 12.9128C19.9811 13.0039 20.0003 13.1015 20 13.2001V14.4501H16ZM18 16.4501V23.4501V16.4501ZM15.75 16.4501L16 23.4501L15.75 16.4501Z" stroke="black" stroke-linecap="round" stroke-linejoin="round"/>
</svg>
